<svg width="100%" viewBox="0 0 680 390" xmlns="http://www.w3.org/2000/svg" style="font-family: sans-serif; background: white;">
<defs>
  <marker id="arrow" viewBox="0 0 10 10" refX="8" refY="5" markerWidth="6" markerHeight="6" orient="auto-start-reverse">
    <path d="M2 1L8 5L2 9" fill="none" stroke="context-stroke" stroke-width="1.5" stroke-linecap="round" stroke-linejoin="round"/>
  </marker>
</defs>

<!-- 线性 DP -->
<rect x="20" y="20" width="300" height="114" rx="8" fill="#EEEDFE" stroke="#534AB7" stroke-width="0.5"/>
<text x="170" y="44" text-anchor="middle" dominant-baseline="central" font-size="14" font-weight="500" fill="#3C3489">线性 DP（一维）</text>
<line x1="20" y1="62" x2="320" y2="62" stroke="#AFA9EC" stroke-width="0.5"/>
<text x="36" y="83" dominant-baseline="central" font-size="12" fill="#534AB7">70 · 爬楼梯</text>
<text x="36" y="103" dominant-baseline="central" font-size="12" fill="#534AB7">198 · 打家劫舍  /  213 · 打家劫舍 II</text>
<text x="36" y="123" dominant-baseline="central" font-size="12" fill="#534AB7">300 · 最长递增子序列</text>

<!-- 背包 DP -->
<rect x="360" y="20" width="300" height="114" rx="8" fill="#E1F5EE" stroke="#0F6E56" stroke-width="0.5"/>
<text x="510" y="44" text-anchor="middle" dominant-baseline="central" font-size="14" font-weight="500" fill="#085041">背包 DP</text>
<line x1="360" y1="62" x2="660" y2="62" stroke="#5DCAA5" stroke-width="0.5"/>
<text x="376" y="83" dominant-baseline="central" font-size="12" fill="#0F6E56">322 · 零钱兑换（完全背包）</text>
<text x="376" y="103" dominant-baseline="central" font-size="12" fill="#0F6E56">416 · 分割等和子集（0/1 背包）</text>
<text x="376" y="123" dominant-baseline="central" font-size="12" fill="#0F6E56">279 · 完全平方数  /  139 · 单词拆分</text>

<!-- 字符串 DP -->
<rect x="20" y="154" width="300" height="114" rx="8" fill="#FAEEDA" stroke="#854F0B" stroke-width="0.5"/>
<text x="170" y="178" text-anchor="middle" dominant-baseline="central" font-size="14" font-weight="500" fill="#633806">字符串 DP（二维）</text>
<line x1="20" y1="196" x2="320" y2="196" stroke="#EF9F27" stroke-width="0.5"/>
<text x="36" y="217" dominant-baseline="central" font-size="12" fill="#854F0B">72 · 编辑距离</text>
<text x="36" y="237" dominant-baseline="central" font-size="12" fill="#854F0B">1143 · 最长公共子序列</text>
<text x="36" y="257" dominant-baseline="central" font-size="12" fill="#854F0B">5 · 最长回文子串</text>

<!-- 股票 DP -->
<rect x="360" y="154" width="300" height="114" rx="8" fill="#FAECE7" stroke="#993C1D" stroke-width="0.5"/>
<text x="510" y="178" text-anchor="middle" dominant-baseline="central" font-size="14" font-weight="500" fill="#712B13">股票 DP（状态机）</text>
<line x1="360" y1="196" x2="660" y2="196" stroke="#F0997B" stroke-width="0.5"/>
<text x="376" y="217" dominant-baseline="central" font-size="12" fill="#993C1D">121 · 买卖股票 I（一次）</text>
<text x="376" y="237" dominant-baseline="central" font-size="12" fill="#993C1D">122 · 买卖股票 II（多次）</text>
<text x="376" y="257" dominant-baseline="central" font-size="12" fill="#993C1D">123 · 买卖股票 III（两次）</text>

<!-- 其他 DP -->
<rect x="20" y="288" width="300" height="82" rx="8" fill="#F1EFE8" stroke="#5F5E5A" stroke-width="0.5"/>
<text x="170" y="312" text-anchor="middle" dominant-baseline="central" font-size="14" font-weight="500" fill="#444441">其他 DP</text>
<line x1="20" y1="330" x2="320" y2="330" stroke="#B4B2A9" stroke-width="0.5"/>
<text x="36" y="340" dominant-baseline="central" font-size="12" fill="#5F5E5A">152 · 乘积最大子数组</text>
<text x="36" y="360" dominant-baseline="central" font-size="12" fill="#5F5E5A">32 · 最长有效括号  /  338 · 比特位计数</text>

<!-- 四步解题法 -->
<rect x="360" y="288" width="300" height="82" rx="8" fill="none" stroke="#B4B2A9" stroke-width="0.5" stroke-dasharray="5 3"/>
<text x="510" y="312" text-anchor="middle" dominant-baseline="central" font-size="14" font-weight="500" fill="#2C2C2A">四步解题法</text>
<line x1="360" y1="326" x2="660" y2="326" stroke="#D3D1C7" stroke-width="0.5"/>
<text x="376" y="346" dominant-baseline="central" font-size="12" fill="#444441">① 定义状态  ② 写转移方程</text>
<text x="376" y="366" dominant-baseline="central" font-size="12" fill="#444441">③ 确定初始值  ④ 确定遍历顺序</text>
</svg>